<?xml version="1.0" encoding="UTF-8"?>
<!DOCTYPE svg PUBLIC "-//W3C//DTD SVG 1.1//EN" "http://www.w3.org/Graphics/SVG/1.1/DTD/svg11.dtd">
<svg xmlns="http://www.w3.org/2000/svg" version="1.1" width="1076px" height="1475px" style="shape-rendering:geometricPrecision; text-rendering:geometricPrecision; image-rendering:optimizeQuality; fill-rule:evenodd; clip-rule:evenodd" xmlns:xlink="http://www.w3.org/1999/xlink">
<g><path style="opacity:1" fill="#f50109" d="M -0.5,1.5 C 357.334,1.16682 715,1.50016 1072.5,2.5C 1072.83,359.236 1072.5,715.903 1071.5,1072.5C 714.167,1072.5 356.833,1072.5 -0.5,1072.5C -0.5,715.5 -0.5,358.5 -0.5,1.5 Z"/></g>
<g><path style="opacity:1" fill="#ba1b21" d="M -0.5,1.5 C -0.5,1.16667 -0.5,0.833333 -0.5,0.5C 357.833,0.5 716.167,0.5 1074.5,0.5C 1074.5,358.167 1074.5,715.833 1074.5,1073.5C 716.167,1073.5 357.833,1073.5 -0.5,1073.5C -0.5,1073.17 -0.5,1072.83 -0.5,1072.5C 356.833,1072.5 714.167,1072.5 1071.5,1072.5C 1072.83,894.501 1073.5,716.168 1073.5,537.5C 1073.5,359 1073.17,180.666 1072.5,2.5C 715,1.50016 357.334,1.16682 -0.5,1.5 Z"/></g>
<g><path style="opacity:1" fill="#dd0911" d="M 1072.5,2.5 C 1073.17,180.666 1073.5,359 1073.5,537.5C 1073.5,716.168 1072.83,894.501 1071.5,1072.5C 1072.5,715.903 1072.83,359.236 1072.5,2.5 Z"/></g>
<g><path style="opacity:1" fill="#fe9ca1" d="M -0.5,0.5 C -0.5,0.166667 -0.5,-0.166667 -0.5,-0.5C 358.167,-0.5 716.833,-0.5 1075.5,-0.5C 1075.5,357.5 1075.5,715.5 1075.5,1073.5C 1075.17,1073.5 1074.83,1073.5 1074.5,1073.5C 1074.5,715.833 1074.5,358.167 1074.5,0.5C 716.167,0.5 357.833,0.5 -0.5,0.5 Z"/></g>
<g><path style="opacity:1" fill="#e71816" d="M 885.5,154.5 C 867.035,163.807 862.535,177.807 872,196.5C 874.04,198.37 875.873,200.37 877.5,202.5C 875.264,201.611 873.264,200.278 871.5,198.5C 870.155,199.347 869.155,200.513 868.5,202C 867.668,202.688 867.002,202.521 866.5,201.5C 867.115,199.884 868.115,198.551 869.5,197.5C 867.23,196.407 866.897,194.907 868.5,193C 868.138,191.775 867.638,190.609 867,189.5C 866.667,183.5 866.333,177.5 866,171.5C 863.967,169.65 863.967,168.984 866,169.5C 866.202,167.744 866.702,166.078 867.5,164.5C 868.167,164.833 868.833,165.167 869.5,165.5C 870.298,163.922 870.798,162.256 871,160.5C 871.414,160.957 871.914,161.291 872.5,161.5C 873.262,160.372 873.929,159.205 874.5,158C 873.551,157.383 872.718,157.549 872,158.5C 871.308,157.975 870.808,157.308 870.5,156.5C 874.972,154.56 876.306,151.393 874.5,147C 875.324,143.942 876.658,143.776 878.5,146.5C 875.956,148.392 875.956,150.225 878.5,152C 877.833,153 877.167,154 876.5,155C 879.531,155.495 882.531,155.329 885.5,154.5 Z"/></g>
<g><path style="opacity:1" fill="#cc2925" d="M 703.5,153.5 C 622.5,153.5 541.5,153.5 460.5,153.5C 460.5,204.833 460.5,256.167 460.5,307.5C 459.167,282.175 458.5,256.509 458.5,230.5C 458.502,204.595 458.836,178.762 459.5,153C 541.001,152.168 622.334,152.334 703.5,153.5 Z"/></g>
<g><path style="opacity:1" fill="#d3423a" d="M 706.5,154.5 C 706.5,154.167 706.5,153.833 706.5,153.5C 711.414,153.362 716.081,154.028 720.5,155.5C 715.797,155.563 711.13,155.229 706.5,154.5 Z"/></g>
<g><path style="opacity:1" fill="#fefefe" d="M 706.5,154.5 C 711.13,155.229 715.797,155.563 720.5,155.5C 728.1,157.128 735.766,158.462 743.5,159.5C 745.838,161.04 748.505,161.706 751.5,161.5C 756.738,163.158 762.072,164.824 767.5,166.5C 778.241,170.97 788.908,175.637 799.5,180.5C 846.612,206.452 881.112,244.119 903,293.5C 906.446,301.944 909.279,310.611 911.5,319.5C 912.376,326.238 913.542,332.905 915,339.5C 915.377,340.942 916.21,341.942 917.5,342.5C 918.7,348.254 919.7,353.921 920.5,359.5C 920.5,363.5 920.5,367.5 920.5,371.5C 920.645,385.183 920.312,398.85 919.5,412.5C 919.5,413.5 919.5,414.5 919.5,415.5C 917.753,421.96 916.419,428.627 915.5,435.5C 915.5,436.167 915.5,436.833 915.5,437.5C 910.433,455.691 903.767,473.358 895.5,490.5C 888.336,502.831 880.669,514.831 872.5,526.5C 867.157,531.844 862.157,537.511 857.5,543.5C 849.402,551.939 840.735,559.606 831.5,566.5C 817.134,577.353 801.8,586.686 785.5,594.5C 775.425,598.189 765.425,601.856 755.5,605.5C 748.662,606.844 741.996,608.511 735.5,610.5C 733.167,610.5 730.833,610.5 728.5,610.5C 724.103,610.425 719.77,610.925 715.5,612C 630.501,612.5 545.501,612.667 460.5,612.5C 460.5,562.5 460.5,512.5 460.5,462.5C 541.501,462.667 622.501,462.5 703.5,462C 706.736,460.276 710.07,460.11 713.5,461.5C 713.527,459.801 714.194,458.467 715.5,457.5C 715.5,457.167 715.5,456.833 715.5,456.5C 735.748,449.587 750.748,436.587 760.5,417.5C 761.117,417.611 761.617,417.944 762,418.5C 762.948,414.548 764.781,411.048 767.5,408C 766.483,404.227 766.483,400.394 767.5,396.5C 770.804,367.899 761.804,344.066 740.5,325C 739.906,324.536 739.239,324.369 738.5,324.5C 730.742,317.617 721.742,312.783 711.5,310C 706.916,308.637 702.249,307.803 697.5,307.5C 697.082,306.778 696.416,306.278 695.5,306C 617.501,305.5 539.501,305.333 461.5,305.5C 461.5,255.167 461.5,204.833 461.5,154.5C 543.167,154.5 624.833,154.5 706.5,154.5 Z"/></g>
<g><path style="opacity:1" fill="#da2220" d="M 911.5,159.5 C 903.574,154.083 894.907,152.416 885.5,154.5C 885.611,153.883 885.944,153.383 886.5,153C 894.714,151.547 902.38,152.713 909.5,156.5C 910.192,155.975 910.692,155.308 911,154.5C 911.494,156.134 911.66,157.801 911.5,159.5 Z"/></g>
<g><path style="opacity:1" fill="#fefefe" d="M 153.5,154.5 C 203.833,154.5 254.167,154.5 304.5,154.5C 304.167,359.001 304.5,563.334 305.5,767.5C 305.5,767.833 305.5,768.167 305.5,768.5C 407.999,769.499 510.665,769.833 613.5,769.5C 613.5,770.5 613.5,771.5 613.5,772.5C 610.955,773.438 610.455,774.771 612,776.5C 612.454,824.567 612.621,872.567 612.5,920.5C 610.408,920.439 608.908,919.439 608,917.5C 607.517,918.448 607.351,919.448 607.5,920.5C 458.167,920.5 308.833,920.5 159.5,920.5C 158.833,916.5 158.167,916.5 157.5,920.5C 156.5,920.5 155.5,920.5 154.5,920.5C 154.342,666.901 154.508,413.234 155,159.5C 158.201,157.442 157.701,156.442 153.5,156.5C 153.5,155.833 153.5,155.167 153.5,154.5 Z"/></g>
<g><path style="opacity:1" fill="#ffe1e4" d="M 153.5,154.5 C 153.5,154.167 153.5,153.833 153.5,153.5C 204.167,153.5 254.833,153.5 305.5,153.5C 305.5,358.167 305.5,562.833 305.5,767.5C 304.5,563.334 304.167,359.001 304.5,154.5C 254.167,154.5 203.833,154.5 153.5,154.5 Z"/></g>
<g><path style="opacity:1" fill="#e11f19" d="M 152.5,153.5 C 203.997,152.501 255.664,152.168 307.5,152.5C 307.5,153.5 307.5,154.5 307.5,155.5C 307.5,359.5 307.5,563.5 307.5,767.5C 306.833,562.833 306.167,358.167 305.5,153.5C 254.833,153.5 204.167,153.5 153.5,153.5C 153.167,153.5 152.833,153.5 152.5,153.5 Z"/></g>
<g><path style="opacity:1" fill="#f0030d" d="M 615.5,922.5 C 615.832,871.331 615.499,820.331 614.5,769.5C 614.5,769.167 614.5,768.833 614.5,768.5C 512.335,767.501 410.001,767.167 307.5,767.5C 307.5,563.5 307.5,359.5 307.5,155.5C 308.833,155.5 310.167,155.5 311.5,155.5C 311.231,153.571 311.731,151.905 313,150.5C 314.176,154.26 313.01,157.093 309.5,159C 310.167,356.804 310.834,554.637 311.5,752.5C 310.649,755.942 310.315,759.276 310.5,762.5C 311.325,763.386 312.325,763.719 313.5,763.5C 313.215,761.712 313.548,760.045 314.5,758.5C 314.92,760.326 314.92,762.326 314.5,764.5C 315.833,764.5 317.167,764.5 318.5,764.5C 317.975,761.52 317.975,758.687 318.5,756C 318.561,754.289 317.894,752.956 316.5,752C 317.166,554.569 317.833,357.069 318.5,159.5C 319.5,361.499 319.833,563.499 319.5,765.5C 416.56,766.152 513.56,765.486 610.5,763.5C 613.37,763.602 615.703,764.768 617.5,767C 616.835,818.931 616.169,870.764 615.5,922.5 Z"/></g>
<g><path style="opacity:1" fill="#c74943" d="M 743.5,159.5 C 746.428,159.565 749.095,160.232 751.5,161.5C 748.505,161.706 745.838,161.04 743.5,159.5 Z"/></g>
<g><path style="opacity:1" fill="#dd2821" d="M 767.5,166.5 C 762.072,164.824 756.738,163.158 751.5,161.5C 753.696,161.59 755.863,161.923 758,162.5C 759.711,162.561 761.044,161.894 762,160.5C 763.734,161.249 765.567,161.749 767.5,162C 765.833,162.333 764.167,162.667 762.5,163C 764.233,164.189 765.9,165.356 767.5,166.5 Z"/></g>
<g><path style="opacity:1" fill="#e4231e" d="M 799.5,180.5 C 788.908,175.637 778.241,170.97 767.5,166.5C 770.044,166.896 772.211,166.229 774,164.5C 775.487,165.253 775.654,166.086 774.5,167C 776.377,167.576 778.211,167.409 780,166.5C 780.5,166.833 781,167.167 781.5,167.5C 780.833,168.167 780.167,168.833 779.5,169.5C 784.118,172.739 789.118,173.906 794.5,173C 793.833,174 793.167,175 792.5,176C 794.126,175.805 795.793,175.805 797.5,176C 794.972,176.998 794.972,177.831 797.5,178.5C 801.544,176.825 802.211,177.492 799.5,180.5 Z"/></g>
<g><path style="opacity:1" fill="#e41516" d="M 920.5,173.5 C 921.222,173.918 921.722,174.584 922,175.5C 922.333,179.833 922.667,184.167 923,188.5C 923.692,189.025 924.192,189.692 924.5,190.5C 923.696,191.941 923.029,193.441 922.5,195C 923.885,196.597 924.551,198.43 924.5,200.5C 923.5,200.5 922.5,200.5 921.5,200.5C 921.5,199.5 921.5,198.5 921.5,197.5C 920.178,197.33 919.011,197.663 918,198.5C 918.263,199.951 918.096,201.284 917.5,202.5C 915.52,201.617 913.52,201.783 911.5,203C 912.602,205.391 911.936,205.891 909.5,204.5C 906.881,206.573 903.881,207.573 900.5,207.5C 916.41,201.688 923.077,190.355 920.5,173.5 Z"/></g>
<g><path style="opacity:1" fill="#fceaeb" d="M 911.5,159.5 C 915.51,163.52 918.51,168.187 920.5,173.5C 923.077,190.355 916.41,201.688 900.5,207.5C 892.064,208.777 884.398,207.111 877.5,202.5C 875.873,200.37 874.04,198.37 872,196.5C 862.535,177.807 867.035,163.807 885.5,154.5C 894.907,152.416 903.574,154.083 911.5,159.5 Z"/></g>
<g><path style="opacity:1" fill="#e91615" d="M 911.5,167.5 C 912.536,169.391 912.536,171.224 911.5,173C 912.448,173.483 913.448,173.649 914.5,173.5C 914.5,178.167 914.5,182.833 914.5,187.5C 913.259,193.914 909.592,198.414 903.5,201C 887.909,205.788 877.409,200.621 872,185.5C 870.499,177.532 872.666,170.865 878.5,165.5C 885.145,158.505 893.145,156.671 902.5,160C 906.275,161.611 909.275,164.111 911.5,167.5 Z"/></g>
<g><path style="opacity:1" fill="#f66a72" d="M 905.5,191.5 C 906.404,192.209 906.737,193.209 906.5,194.5C 903.615,194.806 900.948,194.473 898.5,193.5C 901.388,194.01 903.721,193.344 905.5,191.5 Z"/></g>
<g><path style="opacity:1" fill="#f50209" d="M 883.5,167.5 C 882.974,176.818 882.14,186.151 881,195.5C 880.691,194.234 880.191,193.067 879.5,192C 880.61,189.263 880.777,186.429 880,183.5C 879.667,185.5 879.333,187.5 879,189.5C 878.45,184.93 877.283,184.597 875.5,188.5C 873.284,183.982 872.951,179.316 874.5,174.5C 875.867,171.464 877.2,168.464 878.5,165.5C 880.156,164.854 881.823,164.187 883.5,163.5C 885.56,164.528 887.56,164.528 889.5,163.5C 887.009,162.459 887.009,161.626 889.5,161C 892.882,160.176 896.216,160.343 899.5,161.5C 898.672,162.415 897.672,163.081 896.5,163.5C 895.232,162.572 893.899,162.405 892.5,163C 895.167,164 897.833,165 900.5,166C 894.652,166.173 888.985,166.673 883.5,167.5 Z"/></g>
<g><path style="opacity:1" fill="#fcf2f2" d="M 884.5,167.5 C 889.511,167.334 894.511,167.501 899.5,168C 907.122,173.265 907.456,179.098 900.5,185.5C 902.185,187.571 903.852,189.571 905.5,191.5C 903.721,193.344 901.388,194.01 898.5,193.5C 897.189,190.865 895.522,188.531 893.5,186.5C 892.432,185.566 891.099,185.232 889.5,185.5C 889.5,188.167 889.5,190.833 889.5,193.5C 887.833,193.5 886.167,193.5 884.5,193.5C 884.5,184.833 884.5,176.167 884.5,167.5 Z"/></g>
<g><path style="opacity:1" fill="#f48387" d="M 893.5,186.5 C 892.5,186.5 891.5,186.5 890.5,186.5C 890.802,189.059 890.468,191.393 889.5,193.5C 889.5,190.833 889.5,188.167 889.5,185.5C 891.099,185.232 892.432,185.566 893.5,186.5 Z"/></g>
<g><path style="opacity:1" fill="#ca332e" d="M 898.5,178.5 C 898.389,179.117 898.056,179.617 897.5,180C 894.854,180.497 892.187,180.664 889.5,180.5C 889.5,178.167 889.5,175.833 889.5,173.5C 892.518,173.335 895.518,173.502 898.5,174C 899.801,175.616 899.801,177.116 898.5,178.5 Z"/></g>
<g><path style="opacity:1" fill="#ee040d" d="M 898.5,178.5 C 896.167,178.5 893.833,178.5 891.5,178.5C 891.5,177.167 891.5,175.833 891.5,174.5C 893.527,174.338 895.527,174.505 897.5,175C 898.337,176.011 898.67,177.178 898.5,178.5 Z"/></g>
<g><path style="opacity:1" fill="#feb0b2" d="M 883.5,167.5 C 883.833,167.5 884.167,167.5 884.5,167.5C 884.5,176.167 884.5,184.833 884.5,193.5C 886.167,193.5 887.833,193.5 889.5,193.5C 887.735,194.461 885.735,194.795 883.5,194.5C 883.5,185.5 883.5,176.5 883.5,167.5 Z"/></g>
<g><path style="opacity:1" fill="#cc2e27" d="M 911.5,167.5 C 915.921,172.281 917.421,177.947 916,184.5C 915.768,185.737 915.268,186.737 914.5,187.5C 914.5,182.833 914.5,178.167 914.5,173.5C 913.448,173.649 912.448,173.483 911.5,173C 912.536,171.224 912.536,169.391 911.5,167.5 Z"/></g>
<g><path style="opacity:1" fill="#fcc8c9" d="M 703.5,153.5 C 704.5,153.5 705.5,153.5 706.5,153.5C 706.5,153.833 706.5,154.167 706.5,154.5C 624.833,154.5 543.167,154.5 461.5,154.5C 461.5,204.833 461.5,255.167 461.5,305.5C 539.501,305.333 617.501,305.5 695.5,306C 696.416,306.278 697.082,306.778 697.5,307.5C 618.5,307.5 539.5,307.5 460.5,307.5C 460.5,256.167 460.5,204.833 460.5,153.5C 541.5,153.5 622.5,153.5 703.5,153.5 Z"/></g>
<g><path style="opacity:1" fill="#fed0d4" d="M 911.5,319.5 C 914.567,326.762 916.567,334.429 917.5,342.5C 916.21,341.942 915.377,340.942 915,339.5C 913.542,332.905 912.376,326.238 911.5,319.5 Z"/></g>
<g><path style="opacity:1" fill="#e91414" d="M 738.5,324.5 C 739.239,324.369 739.906,324.536 740.5,325C 761.804,344.066 770.804,367.899 767.5,396.5C 766.833,397.5 766.167,398.5 765.5,399.5C 766.391,391.515 766.558,383.515 766,375.5C 765.519,372.523 764.352,369.857 762.5,367.5C 761.813,369.274 760.98,370.941 760,372.5C 759.091,369.487 758.258,366.487 757.5,363.5C 758.552,363.649 759.552,363.483 760.5,363C 758.335,359.831 756.835,356.331 756,352.5C 754.644,351.62 753.144,351.286 751.5,351.5C 751.329,348.203 751.995,347.869 753.5,350.5C 755.321,349.272 756.321,347.606 756.5,345.5C 755.5,345.5 754.5,345.5 753.5,345.5C 753.698,342.23 752.198,340.23 749,339.5C 748.872,334.538 746.372,331.538 741.5,330.5C 739.585,328.929 738.585,326.929 738.5,324.5 Z"/></g>
<g><path style="opacity:1" fill="#cc191c" d="M 920.5,359.5 C 921.222,359.918 921.722,360.584 922,361.5C 922.667,376.5 922.667,391.5 922,406.5C 921.722,407.416 921.222,408.082 920.5,408.5C 921.761,396.02 921.761,383.686 920.5,371.5C 920.5,367.5 920.5,363.5 920.5,359.5 Z"/></g>
<g><path style="opacity:1" fill="#dc6b6a" d="M 920.5,371.5 C 921.761,383.686 921.761,396.02 920.5,408.5C 920.768,410.099 920.434,411.432 919.5,412.5C 920.312,398.85 920.645,385.183 920.5,371.5 Z"/></g>
<g><path style="opacity:1" fill="#fcd6d9" d="M 767.5,396.5 C 766.483,400.394 766.483,404.227 767.5,408C 764.781,411.048 762.948,414.548 762,418.5C 761.617,417.944 761.117,417.611 760.5,417.5C 763.091,411.806 764.758,405.806 765.5,399.5C 766.167,398.5 766.833,397.5 767.5,396.5 Z"/></g>
<g><path style="opacity:1" fill="#d63830" d="M 919.5,415.5 C 919.361,421.557 918.694,427.557 917.5,433.5C 916.818,434.243 916.151,434.909 915.5,435.5C 916.419,428.627 917.753,421.96 919.5,415.5 Z"/></g>
<g><path style="opacity:1" fill="#e40a0c" d="M 715.5,456.5 C 715.5,456.833 715.5,457.167 715.5,457.5C 711.626,458.761 707.626,459.428 703.5,459.5C 623.514,460.48 543.514,460.813 463.5,460.5C 539.999,459.667 616.666,459.167 693.5,459C 689.252,458.031 688.919,457.198 692.5,456.5C 697.35,458.318 702.35,458.818 707.5,458C 706.833,457.667 706.167,457.333 705.5,457C 708.824,455.384 712.157,455.217 715.5,456.5 Z"/></g>
<g><path style="opacity:1" fill="#e44c4c" d="M 703.5,459.5 C 701.708,460.309 699.708,460.809 697.5,461C 618.501,461.5 539.501,461.667 460.5,461.5C 460.167,461.5 459.833,461.5 459.5,461.5C 460.568,460.566 461.901,460.232 463.5,460.5C 543.514,460.813 623.514,460.48 703.5,459.5 Z"/></g>
<g><path style="opacity:1" fill="#fee2e6" d="M 715.5,457.5 C 714.194,458.467 713.527,459.801 713.5,461.5C 710.07,460.11 706.736,460.276 703.5,462C 622.501,462.5 541.501,462.667 460.5,462.5C 460.5,462.167 460.5,461.833 460.5,461.5C 539.501,461.667 618.501,461.5 697.5,461C 699.708,460.809 701.708,460.309 703.5,459.5C 707.626,459.428 711.626,458.761 715.5,457.5 Z"/></g>
<g><path style="opacity:1" fill="#e61d1a" d="M 915.5,437.5 C 914.935,442.149 914.435,446.816 914,451.5C 910.433,455.06 909.599,459.227 911.5,464C 910.9,467.134 909.9,470.134 908.5,473C 909.102,474.563 909.935,474.396 911,472.5C 911.167,473 911.333,473.5 911.5,474C 909.771,476.322 907.604,478.155 905,479.5C 904.228,479.355 903.561,479.022 903,478.5C 901.076,482.017 899.409,485.684 898,489.5C 897.329,490.252 896.496,490.586 895.5,490.5C 903.767,473.358 910.433,455.691 915.5,437.5 Z"/></g>
<g><path style="opacity:1" fill="#e01d1a" d="M 895.5,490.5 C 894.242,493.694 893.576,497.027 893.5,500.5C 892.5,500.5 891.5,500.5 890.5,500.5C 889.771,505.407 888.271,510.074 886,514.5C 885.667,513.833 885.333,513.167 885,512.5C 883.139,514.888 881.806,517.554 881,520.5C 877.754,521.913 874.92,523.913 872.5,526.5C 880.669,514.831 888.336,502.831 895.5,490.5 Z"/></g>
<g><path style="opacity:1" fill="#e31a19" d="M 857.5,543.5 C 855.107,547.402 852.107,550.902 848.5,554C 849.308,554.308 849.975,554.808 850.5,555.5C 849.469,556.7 848.635,558.034 848,559.5C 847.667,559.167 847.333,558.833 847,558.5C 844.932,561.975 841.766,563.475 837.5,563C 836.084,565.265 834.084,566.431 831.5,566.5C 840.735,559.606 849.402,551.939 857.5,543.5 Z"/></g>
<g><path style="opacity:1" fill="#d1372f" d="M 785.5,594.5 C 780.911,597.652 775.911,600.152 770.5,602C 765.507,603.277 760.507,604.444 755.5,605.5C 765.425,601.856 775.425,598.189 785.5,594.5 Z"/></g>
<g><path style="opacity:1" fill="#d33932" d="M 728.5,610.5 C 730.833,610.5 733.167,610.5 735.5,610.5C 731.971,612.423 727.971,613.089 723.5,612.5C 725.167,611.833 726.833,611.167 728.5,610.5 Z"/></g>
<g><path style="opacity:1" fill="#fff1f0" d="M 728.5,610.5 C 726.833,611.167 725.167,611.833 723.5,612.5C 716.869,613.331 710.202,613.664 703.5,613.5C 622.332,613.833 541.332,613.499 460.5,612.5C 545.501,612.667 630.501,612.5 715.5,612C 719.77,610.925 724.103,610.425 728.5,610.5 Z"/></g>
<g><path style="opacity:1" fill="#ffcfcf" d="M 459.5,461.5 C 459.833,461.5 460.167,461.5 460.5,461.5C 460.5,461.833 460.5,462.167 460.5,462.5C 460.5,512.5 460.5,562.5 460.5,612.5C 541.332,613.499 622.332,613.833 703.5,613.5C 622.335,614.499 541.002,614.833 459.5,614.5C 459.5,563.5 459.5,512.5 459.5,461.5 Z"/></g>
<g><path style="opacity:1" fill="#cc171d" d="M 723.5,612.5 C 716.381,613.563 711.214,615.23 708,617.5C 624.837,617.18 542.004,616.18 459.5,614.5C 541.002,614.833 622.335,614.499 703.5,613.5C 710.202,613.664 716.869,613.331 723.5,612.5 Z"/></g>
<g><path style="opacity:1" fill="#b43639" d="M 305.5,153.5 C 306.167,358.167 306.833,562.833 307.5,767.5C 410.001,767.167 512.335,767.501 614.5,768.5C 511.5,768.5 408.5,768.5 305.5,768.5C 305.5,768.167 305.5,767.833 305.5,767.5C 305.5,562.833 305.5,358.167 305.5,153.5 Z"/></g>
<g><path style="opacity:1" fill="#e0564f" d="M 835.5,773.5 C 844.657,772.342 853.991,772.176 863.5,773C 865.066,773.608 866.4,774.442 867.5,775.5C 856.914,773.806 846.247,773.14 835.5,773.5 Z"/></g>
<g><path style="opacity:1" fill="#fefdfd" d="M 835.5,773.5 C 846.247,773.14 856.914,773.806 867.5,775.5C 892.46,784.127 909.46,800.794 918.5,825.5C 923.529,844.023 922.195,862.023 914.5,879.5C 908.34,892.438 899.34,903.104 887.5,911.5C 882.795,913.853 878.128,916.186 873.5,918.5C 872.833,918.5 872.167,918.5 871.5,918.5C 866.157,919.558 860.824,920.725 855.5,922C 848.842,922.5 842.175,922.666 835.5,922.5C 834.167,922.5 832.833,922.5 831.5,922.5C 807.353,917.255 789.686,903.588 778.5,881.5C 776.939,875.388 775.106,869.388 773,863.5C 772.014,850.745 772.514,838.079 774.5,825.5C 775.675,825.719 776.675,825.386 777.5,824.5C 776.652,822.591 776.318,820.591 776.5,818.5C 786.616,796.384 803.282,781.717 826.5,774.5C 829.455,773.841 832.455,773.508 835.5,773.5 Z"/></g>
<g><path style="opacity:1" fill="#e71214" d="M 826.5,774.5 C 803.282,781.717 786.616,796.384 776.5,818.5C 771.12,831.182 769.12,844.515 770.5,858.5C 769.732,857.737 769.232,856.737 769,855.5C 768.391,847.486 768.058,839.486 768,831.5C 768.909,836.269 769.743,836.435 770.5,832C 768.718,827.243 767.718,822.576 767.5,818C 768.893,816.829 769.727,815.329 770,813.5C 770.519,814.516 771.353,815.182 772.5,815.5C 774.281,813.651 776.281,811.984 778.5,810.5C 776.539,809.152 776.372,807.819 778,806.5C 778.308,807.308 778.808,807.975 779.5,808.5C 780.615,805.888 782.282,803.721 784.5,802C 784.043,801.586 783.709,801.086 783.5,800.5C 786.338,799.488 787.671,797.488 787.5,794.5C 788.833,794.5 790.167,794.5 791.5,794.5C 791.5,793.167 791.5,791.833 791.5,790.5C 792.873,790.657 794.207,790.49 795.5,790C 794.978,789.439 794.645,788.772 794.5,788C 796.167,786.333 797.833,784.667 799.5,783C 800.695,781.467 800.695,779.967 799.5,778.5C 802.67,777.705 805.67,778.371 808.5,780.5C 810.891,779.809 810.891,778.809 808.5,777.5C 809.833,776.167 809.833,774.833 808.5,773.5C 809,773.167 809.5,772.833 810,772.5C 811.482,774.112 813.315,775.112 815.5,775.5C 815.5,774.5 815.5,773.5 815.5,772.5C 819.085,773.583 822.751,774.249 826.5,774.5 Z"/></g>
<g><path style="opacity:1" fill="#fedfe1" d="M 776.5,818.5 C 776.318,820.591 776.652,822.591 777.5,824.5C 776.675,825.386 775.675,825.719 774.5,825.5C 772.514,838.079 772.014,850.745 773,863.5C 775.106,869.388 776.939,875.388 778.5,881.5C 774.456,874.333 771.79,866.666 770.5,858.5C 769.12,844.515 771.12,831.182 776.5,818.5 Z"/></g>
<g><path style="opacity:1" fill="#e61816" d="M 918.5,825.5 C 920.195,827.732 921.362,830.399 922,833.5C 922.202,831.744 922.702,830.078 923.5,828.5C 923.833,829.5 924.167,830.5 924.5,831.5C 921.863,842.202 921.863,852.869 924.5,863.5C 924.333,864.167 924.167,864.833 924,865.5C 923.29,864.027 922.124,863.36 920.5,863.5C 920.348,867.468 921.348,871.135 923.5,874.5C 924.281,873.271 924.781,871.938 925,870.5C 926.365,871.593 926.699,872.926 926,874.5C 925,875.833 924,877.167 923,878.5C 922.751,877.376 922.251,876.376 921.5,875.5C 919.139,876.855 916.806,878.188 914.5,879.5C 922.195,862.023 923.529,844.023 918.5,825.5 Z"/></g>
<g><path style="opacity:1" fill="#e11d1b" d="M 914.5,879.5 C 913.795,882.244 913.795,884.911 914.5,887.5C 918.657,883.314 919.324,883.814 916.5,889C 915.207,889.49 913.873,889.657 912.5,889.5C 912.574,893.161 911.574,893.828 909.5,891.5C 908.904,892.716 908.737,894.049 909,895.5C 908.282,894.549 907.449,894.383 906.5,895C 904.372,898.13 901.872,900.963 899,903.5C 898.798,905.256 898.298,906.922 897.5,908.5C 896.808,907.975 896.308,907.308 896,906.5C 895.667,907.833 895.333,909.167 895,910.5C 894.692,909.692 894.192,909.025 893.5,908.5C 891.87,910.264 889.87,911.264 887.5,911.5C 899.34,903.104 908.34,892.438 914.5,879.5 Z"/></g>
<g><path style="opacity:1" fill="#fef4f4" d="M 153.5,156.5 C 157.701,156.442 158.201,157.442 155,159.5C 154.508,413.234 154.342,666.901 154.5,920.5C 155.5,920.5 156.5,920.5 157.5,920.5C 158.167,916.5 158.833,916.5 159.5,920.5C 308.833,920.5 458.167,920.5 607.5,920.5C 607.351,919.448 607.517,918.448 608,917.5C 608.908,919.439 610.408,920.439 612.5,920.5C 612.621,872.567 612.454,824.567 612,776.5C 610.455,774.771 610.955,773.438 613.5,772.5C 613.5,822.167 613.5,871.833 613.5,921.5C 460.167,921.5 306.833,921.5 153.5,921.5C 153.5,666.5 153.5,411.5 153.5,156.5 Z"/></g>
<g><path style="opacity:1" fill="#ffd9da" d="M 152.5,153.5 C 152.833,153.5 153.167,153.5 153.5,153.5C 153.5,153.833 153.5,154.167 153.5,154.5C 153.5,155.167 153.5,155.833 153.5,156.5C 153.5,411.5 153.5,666.5 153.5,921.5C 306.833,921.5 460.167,921.5 613.5,921.5C 613.5,871.833 613.5,822.167 613.5,772.5C 613.5,771.5 613.5,770.5 613.5,769.5C 510.665,769.833 407.999,769.499 305.5,768.5C 408.5,768.5 511.5,768.5 614.5,768.5C 614.5,768.833 614.5,769.167 614.5,769.5C 614.5,820.5 614.5,871.5 614.5,922.5C 460.5,922.5 306.5,922.5 152.5,922.5C 152.5,666.167 152.5,409.833 152.5,153.5 Z"/></g>
<g><path style="opacity:1" fill="#fcced3" d="M 871.5,918.5 C 859.878,923.338 847.878,924.672 835.5,922.5C 842.175,922.666 848.842,922.5 855.5,922C 860.824,920.725 866.157,919.558 871.5,918.5 Z"/></g>
<g><path style="opacity:1" fill="#bb1e20" d="M 152.5,153.5 C 152.5,409.833 152.5,666.167 152.5,922.5C 306.5,922.5 460.5,922.5 614.5,922.5C 614.5,871.5 614.5,820.5 614.5,769.5C 615.499,820.331 615.832,871.331 615.5,922.5C 615.389,923.117 615.056,923.617 614.5,924C 460.167,924.5 305.834,924.667 151.5,924.5C 151.167,667.333 151.5,410.333 152.5,153.5 Z"/></g>
<g><path style="opacity:1" fill="#c72323" d="M 871.5,918.5 C 872.167,918.5 872.833,918.5 873.5,918.5C 872.097,919.931 870.431,921.098 868.5,922C 865.044,922.18 861.711,922.847 858.5,924C 854,924.167 849.5,924.333 845,924.5C 840.114,924.493 835.614,923.826 831.5,922.5C 832.833,922.5 834.167,922.5 835.5,922.5C 847.878,924.672 859.878,923.338 871.5,918.5 Z"/></g>
<g><path style="opacity:1" fill="#f7fcfc" d="M -0.5,1073.5 C 357.833,1073.5 716.167,1073.5 1074.5,1073.5C 1074.83,1073.5 1075.17,1073.5 1075.5,1073.5C 1075.5,1074.17 1075.5,1074.83 1075.5,1075.5C 716.903,1076.5 358.236,1076.83 -0.5,1076.5C -0.5,1075.5 -0.5,1074.5 -0.5,1073.5 Z"/></g>
<g><path style="opacity:1" fill="#fefefe" d="M 1075.5,1075.5 C 1075.5,1208.5 1075.5,1341.5 1075.5,1474.5C 716.833,1474.5 358.167,1474.5 -0.5,1474.5C -0.5,1474.17 -0.5,1473.83 -0.5,1473.5C 357.833,1473.5 716.167,1473.5 1074.5,1473.5C 1074.5,1383.17 1074.5,1292.83 1074.5,1202.5C 716.167,1202.5 357.833,1202.5 -0.5,1202.5C -0.5,1160.5 -0.5,1118.5 -0.5,1076.5C 358.236,1076.83 716.903,1076.5 1075.5,1075.5 Z"/></g>
<g><path style="opacity:1" fill="#404040" d="M -0.5,1202.5 C 357.833,1202.5 716.167,1202.5 1074.5,1202.5C 1074.5,1292.83 1074.5,1383.17 1074.5,1473.5C 716.167,1473.5 357.833,1473.5 -0.5,1473.5C -0.5,1383.17 -0.5,1292.83 -0.5,1202.5 Z"/></g>
<g><path style="opacity:1" fill="#fbfbfb" d="M 352.5,1391.5 C 343.167,1391.5 333.833,1391.5 324.5,1391.5C 324.826,1382.98 324.493,1374.65 323.5,1366.5C 309.167,1366.5 294.833,1366.5 280.5,1366.5C 280.5,1375.17 280.5,1383.83 280.5,1392.5C 270.833,1392.5 261.167,1392.5 251.5,1392.5C 251.333,1369.16 251.5,1345.83 252,1322.5C 257.905,1295.95 274.571,1282.61 302,1282.5C 318.159,1282.33 331.825,1287.99 343,1299.5C 347.617,1305.4 350.617,1312.07 352,1319.5C 352.5,1343.5 352.667,1367.5 352.5,1391.5 Z"/></g>
<g><path style="opacity:1" fill="#fcfcfc" d="M 520.5,1283.5 C 544.858,1279.7 565.358,1286.7 582,1304.5C 592.061,1318.26 595.395,1333.59 592,1350.5C 586.074,1372.76 571.907,1386.59 549.5,1392C 522.28,1397.6 500.447,1389.43 484,1367.5C 469.354,1340.06 473.521,1315.9 496.5,1295C 503.932,1289.78 511.932,1285.95 520.5,1283.5 Z"/></g>
<g><path style="opacity:1" fill="#fcfcfc" d="M 770.5,1392.5 C 770.5,1383.83 770.5,1375.17 770.5,1366.5C 755.833,1366.5 741.167,1366.5 726.5,1366.5C 726.5,1375.17 726.5,1383.83 726.5,1392.5C 717.167,1392.5 707.833,1392.5 698.5,1392.5C 698.333,1367.83 698.5,1343.16 699,1318.5C 706.14,1294.5 722.307,1282.5 747.5,1282.5C 768.597,1281.89 784.431,1290.56 795,1308.5C 797.156,1313.63 798.489,1318.97 799,1324.5C 799.5,1347.16 799.667,1369.83 799.5,1392.5C 789.833,1392.5 780.167,1392.5 770.5,1392.5 Z"/></g>
<g><path style="opacity:1" fill="#fcfcfc" d="M 374.5,1283.5 C 395.207,1283.07 415.873,1283.57 436.5,1285C 460.471,1292.42 469.971,1308.58 465,1333.5C 461.073,1348.43 451.573,1357.59 436.5,1361C 425.54,1362.29 414.54,1362.79 403.5,1362.5C 403.5,1372.5 403.5,1382.5 403.5,1392.5C 393.833,1392.5 384.167,1392.5 374.5,1392.5C 374.5,1356.17 374.5,1319.83 374.5,1283.5 Z"/></g>
<g><path style="opacity:1" fill="#fdfdfd" d="M 610.5,1283.5 C 619.833,1283.5 629.167,1283.5 638.5,1283.5C 638.5,1311.5 638.5,1339.5 638.5,1367.5C 653.833,1367.5 669.167,1367.5 684.5,1367.5C 684.5,1375.5 684.5,1383.5 684.5,1391.5C 659.833,1391.5 635.167,1391.5 610.5,1391.5C 610.5,1355.5 610.5,1319.5 610.5,1283.5 Z"/></g>
<g><path style="opacity:1" fill="#fbfbfb" d="M 820.5,1283.5 C 841.53,1283.11 862.53,1283.61 883.5,1285C 908.538,1291.07 918.704,1306.91 914,1332.5C 912.771,1337.53 910.771,1342.2 908,1346.5C 904.445,1350.39 900.612,1353.89 896.5,1357C 903.422,1368.92 910.756,1380.59 918.5,1392C 907.485,1392.83 896.485,1392.67 885.5,1391.5C 880.387,1382.11 875.387,1372.61 870.5,1363C 863.508,1362.5 856.508,1362.33 849.5,1362.5C 849.5,1372.5 849.5,1382.5 849.5,1392.5C 839.833,1392.5 830.167,1392.5 820.5,1392.5C 820.5,1356.17 820.5,1319.83 820.5,1283.5 Z"/></g>
<g><path style="opacity:1" fill="#c9c9c9" d="M 163.5,1283.5 C 173.167,1283.5 182.833,1283.5 192.5,1283.5C 192.5,1311.5 192.5,1339.5 192.5,1367.5C 207.833,1367.5 223.167,1367.5 238.5,1367.5C 238.5,1375.83 238.5,1384.17 238.5,1392.5C 213.5,1392.5 188.5,1392.5 163.5,1392.5C 163.5,1356.17 163.5,1319.83 163.5,1283.5 Z"/></g>
<g><path style="opacity:1" fill="#fefefe" d="M 164.5,1284.5 C 173.5,1284.5 182.5,1284.5 191.5,1284.5C 191.5,1312.5 191.5,1340.5 191.5,1368.5C 206.833,1368.5 222.167,1368.5 237.5,1368.5C 237.5,1376.17 237.5,1383.83 237.5,1391.5C 213.167,1391.5 188.833,1391.5 164.5,1391.5C 164.5,1355.83 164.5,1320.17 164.5,1284.5 Z"/></g>
<g><path style="opacity:1" fill="#414141" d="M 403.5,1306.5 C 412.235,1306.12 420.902,1306.62 429.5,1308C 435.922,1310.67 438.922,1315.5 438.5,1322.5C 439.215,1329.91 436.215,1335.08 429.5,1338C 420.916,1339.41 412.25,1339.91 403.5,1339.5C 403.5,1328.5 403.5,1317.5 403.5,1306.5 Z"/></g>
<g><path style="opacity:1" fill="#414141" d="M 849.5,1306.5 C 858.173,1306.33 866.84,1306.5 875.5,1307C 887.256,1311.36 890.756,1319.53 886,1331.5C 884.437,1334.73 881.937,1336.9 878.5,1338C 868.914,1339.42 859.247,1339.92 849.5,1339.5C 849.5,1328.5 849.5,1317.5 849.5,1306.5 Z"/></g>
<g><path style="opacity:1" fill="#404040" d="M 294.5,1307.5 C 307.997,1304.55 317.497,1309.21 323,1321.5C 323.5,1329.16 323.666,1336.83 323.5,1344.5C 309.167,1344.5 294.833,1344.5 280.5,1344.5C 280.094,1336.08 280.594,1327.75 282,1319.5C 284.744,1313.92 288.911,1309.92 294.5,1307.5 Z"/></g>
<g><path style="opacity:1" fill="#414141" d="M 527.5,1307.5 C 553.968,1307.07 565.801,1320.07 563,1346.5C 557.454,1362.38 546.287,1369.88 529.5,1369C 510.573,1362.67 502.739,1349.5 506,1329.5C 510.019,1318.98 517.186,1311.65 527.5,1307.5 Z"/></g>
<g><path style="opacity:1" fill="#404040" d="M 769.5,1323.5 C 769.5,1330.5 769.5,1337.5 769.5,1344.5C 755.5,1344.5 741.5,1344.5 727.5,1344.5C 727.5,1337.5 727.5,1330.5 727.5,1323.5C 730.075,1312.79 736.908,1307.45 748,1307.5C 759.51,1307.16 766.676,1312.49 769.5,1323.5 Z"/></g>
<g><path style="opacity:1" fill="#8e8e8e" d="M 727.5,1323.5 C 727.5,1330.5 727.5,1337.5 727.5,1344.5C 741.5,1344.5 755.5,1344.5 769.5,1344.5C 769.5,1337.5 769.5,1330.5 769.5,1323.5C 770.492,1330.65 770.825,1337.98 770.5,1345.5C 755.833,1345.5 741.167,1345.5 726.5,1345.5C 726.175,1337.98 726.508,1330.65 727.5,1323.5 Z"/></g>
<g><path style="opacity:1" fill="#6f6f6f" d="M 770.5,1392.5 C 769.507,1384.35 769.174,1376.02 769.5,1367.5C 755.5,1367.5 741.5,1367.5 727.5,1367.5C 727.826,1376.02 727.493,1384.35 726.5,1392.5C 726.5,1383.83 726.5,1375.17 726.5,1366.5C 741.167,1366.5 755.833,1366.5 770.5,1366.5C 770.5,1375.17 770.5,1383.83 770.5,1392.5 Z"/></g>
<g><path style="opacity:1" fill="#bfbfbf" d="M 323.5,1366.5 C 324.493,1374.65 324.826,1382.98 324.5,1391.5C 333.833,1391.5 343.167,1391.5 352.5,1391.5C 343.014,1392.49 333.348,1392.83 323.5,1392.5C 323.5,1383.83 323.5,1375.17 323.5,1366.5 Z"/></g>
<g><path style="opacity:1" fill="#bcbcbc" d="M 610.5,1283.5 C 610.5,1319.5 610.5,1355.5 610.5,1391.5C 635.167,1391.5 659.833,1391.5 684.5,1391.5C 659.672,1392.5 634.672,1392.83 609.5,1392.5C 609.168,1356 609.502,1319.66 610.5,1283.5 Z"/></g>
</svg>
